<svg width="64" height="64" viewBox="0 0 64 64" fill="none" xmlns="http://www.w3.org/2000/svg">
  <defs>
    <!-- Hacker green gradient -->
    <linearGradient id="hackerGreen" x1="0%" y1="0%" x2="100%" y2="100%">
      <stop offset="0%" style="stop-color:#00ff94;stop-opacity:1" />
      <stop offset="50%" style="stop-color:#00ff00;stop-opacity:1" />
      <stop offset="100%" style="stop-color:#00d9ff;stop-opacity:1" />
    </linearGradient>
    
    <!-- Dark hacker background -->
    <linearGradient id="darkHacker" x1="0%" y1="0%" x2="100%" y2="100%">
      <stop offset="0%" style="stop-color:#000000;stop-opacity:1" />
      <stop offset="100%" style="stop-color:#0d0d0d;stop-opacity:1" />
    </linearGradient>
    
    <!-- Intense hacker glow -->
    <filter id="hackerGlow" x="-40%" y="-40%" width="180%" height="180%">
      <feGaussianBlur stdDeviation="2" result="coloredBlur"/>
      <feMerge> 
        <feMergeNode in="coloredBlur"/>
        <feMergeNode in="SourceGraphic"/>
      </feMerge>
    </filter>
    
    <!-- Glitch effect -->
    <filter id="glitch" x="-20%" y="-20%" width="140%" height="140%">
      <feGaussianBlur stdDeviation="0.3" result="blur"/>
      <feMerge> 
        <feMergeNode in="blur"/>
        <feMergeNode in="SourceGraphic"/>
      </feMerge>
    </filter>
  </defs>
  
  <!-- Black background -->
  <rect width="64" height="64" fill="#000000"/>
  
  <!-- Hacker shield with angular edges -->
  <path
    d="M32 8 L48 15 L48 37 C48 43 41 50 32 54 C23 50 16 43 16 37 L16 15 Z"
    fill="url(#darkHacker)"
    stroke="url(#hackerGreen)"
        stroke-width="2.5" 
    filter="url(#hackerGlow)"
  />
  
  <!-- Digital skull outline (hacker symbol) -->
  <g transform="translate(32, 30) scale(1.4)">
    <!-- Skull shape -->
    <path
      d="M0 -8 C4 -8 6 -6 6 -2 L6 2 C6 4 4 6 2 6 L-2 6 C-4 6 -6 4 -6 2 L-6 -2 C-6 -6 -4 -8 0 -8 Z"
      fill="none"
      stroke="url(#hackerGreen)"
      stroke-width="1.5"
      filter="url(#hackerGlow)"
    />
    
    <!-- Digital eyes -->
    <circle cx="-2" cy="-2" r="1.5" fill="url(#hackerGreen)" filter="url(#glitch)" />
    <circle cx="2" cy="-2" r="1.5" fill="url(#hackerGreen)" filter="url(#glitch)" />
    
    <!-- Digital mouth/teeth -->
    <rect x="-1" y="2" width="0.5" height="2" fill="url(#hackerGreen)" opacity="0.8" />
    <rect x="0.5" y="2" width="0.5" height="2" fill="url(#hackerGreen)" opacity="0.8" />
  </g>
  

</svg> 